# xmcd CD database file
#
# Track frame offsets:
#	150
#	26845
#	49694
#	85476
#	109027
#	136010
#	166863
#	193756
#	212666
#	254643
#
# Disc length: 3627 seconds
#
# Revision: 2
# Processed by: cddbd v1.5PL3 Copyright (c) Steve Scherf et al.
# Submitted via: CDex 1.51
#
DISCID=890e290a
DTITLE=陰陽座 - 百鬼繚乱
DYEAR=2000
DGENRE=Metal
TTITLE0=式を駆る者
TTITLE1=桜花の理
TTITLE2=塗り壁
TTITLE3=癲教院狂人廓
TTITLE4=八咫烏
TTITLE5=歪む月
TTITLE6=帝都魔魁潭
TTITLE7=化外忍法帖
TTITLE8=奇子
TTITLE9=がいながてや
EXTD=YEAR: 2000
EXTT0=
EXTT1=
EXTT2=
EXTT3=
EXTT4=
EXTT5=
EXTT6=
EXTT7=
EXTT8=
EXTT9=
PLAYORDER=
